<svg xmlns="http://www.w3.org/2000/svg" xmlns:xlink="http://www.w3.org/1999/xlink" width="3240" zoomAndPan="magnify" viewBox="0 0 2430 2430.000006" height="3240" preserveAspectRatio="xMidYMid meet" version="1.0"><defs><g/><clipPath id="9f327cc7e3"><path d="M 0.5 0 L 2429.5 0 L 2429.5 2429 L 0.5 2429 Z M 0.5 0 " clip-rule="nonzero"/></clipPath><clipPath id="ff9e2553b6"><rect x="0" width="2430" y="0" height="2429"/></clipPath></defs><g clip-path="url(#9f327cc7e3)"><g transform="matrix(1, 0, 0, 1, 0.000000000000000056, -0.000000000000206677)"><g clip-path="url(#ff9e2553b6)"><g fill="#ff3131" fill-opacity="1"><g transform="translate(-327.67053, 2329.366667)"><g><path d="M 876.125 -674.109375 L 954.8125 -674.109375 C 993.082031 -674.109375 1020.015625 -663.117188 1035.609375 -641.140625 C 1051.203125 -619.171875 1059 -577 1059 -514.625 L 1059 -161.609375 C 1059 -93.566406 1050.492188 -49.617188 1033.484375 -29.765625 C 1016.472656 -9.921875 964.019531 0 876.125 0 L 486.96875 0 C 448.695312 0 421.757812 -11.335938 406.15625 -34.015625 C 390.5625 -56.703125 382.765625 -99.234375 382.765625 -161.609375 L 382.765625 -514.625 C 382.765625 -581.25 391.269531 -624.484375 408.28125 -644.328125 C 425.300781 -664.179688 477.757812 -674.109375 565.65625 -674.109375 Z M 876.125 -674.109375 "/></g></g></g><g fill="#ff3131" fill-opacity="1"><g transform="translate(1114.10985, 2329.366667)"><g><path d="M -104.203125 70.171875 L 1027.109375 -2317.90625 L 1314.1875 -2317.90625 L 174.375 70.171875 Z M -104.203125 70.171875 "/></g></g></g></g></g></g></svg>