<svg xmlns="http://www.w3.org/2000/svg" xmlns:xlink="http://www.w3.org/1999/xlink" width="1920" zoomAndPan="magnify" viewBox="0 0 1440 809.999993" height="1080" preserveAspectRatio="xMidYMid meet" version="1.0"><defs><g/><clipPath id="a39eb7f7e3"><rect x="0" width="317" y="0" height="511"/></clipPath><clipPath id="250576bd87"><rect x="0" width="1021" y="0" height="268"/></clipPath></defs><g transform="matrix(1, 0, 0, 1, 36, 122)"><g clip-path="url(#a39eb7f7e3)"><g fill="#ff3131" fill-opacity="1"><g transform="translate(1.870463, 394.455344)"><g><path d="M 98.09375 -75.484375 L 106.90625 -75.484375 C 111.195312 -75.484375 114.210938 -74.25 115.953125 -71.78125 C 117.703125 -69.320312 118.578125 -64.601562 118.578125 -57.625 L 118.578125 -18.09375 C 118.578125 -10.476562 117.625 -5.554688 115.71875 -3.328125 C 113.8125 -1.109375 107.9375 0 98.09375 0 L 54.53125 0 C 50.238281 0 47.21875 -1.269531 45.46875 -3.8125 C 43.726562 -6.351562 42.859375 -11.113281 42.859375 -18.09375 L 42.859375 -57.625 C 42.859375 -65.082031 43.8125 -69.921875 45.71875 -72.140625 C 47.625 -74.367188 53.5 -75.484375 63.34375 -75.484375 Z M 98.09375 -75.484375 "/></g></g><g transform="translate(163.304492, 394.455344)"><g><path d="M -11.671875 7.859375 L 115 -259.53125 L 147.15625 -259.53125 L 19.53125 7.859375 Z M -11.671875 7.859375 "/></g></g></g></g></g><g transform="matrix(1, 0, 0, 1, 334, 277)"><g clip-path="url(#250576bd87)"><g fill="#ffffff" fill-opacity="1"><g transform="translate(0.248212, 207.011522)"><g><path d="M 132.515625 -108.75 L 63.703125 -108.75 L 63.703125 -73.90625 L 132.515625 -73.90625 C 137.828125 -73.90625 141.457031 -74.671875 143.40625 -76.203125 C 145.351562 -77.742188 146.328125 -80.460938 146.328125 -84.359375 L 146.328125 -98.421875 C 146.328125 -102.234375 145.351562 -104.90625 143.40625 -106.4375 C 141.457031 -107.976562 137.828125 -108.75 132.515625 -108.75 Z M 33.59375 0 L 33.59375 -131.515625 L 146.078125 -131.515625 C 156.523438 -131.515625 164.09375 -129.503906 168.78125 -125.484375 C 173.46875 -121.460938 175.8125 -114.972656 175.8125 -106.015625 L 175.8125 -76.640625 C 175.8125 -67.765625 173.46875 -61.316406 168.78125 -57.296875 C 164.09375 -53.273438 156.523438 -51.265625 146.078125 -51.265625 L 63.703125 -51.265625 L 63.703125 0 Z M 33.59375 0 "/></g></g></g><g fill="#ffffff" fill-opacity="1"><g transform="translate(189.61824, 207.011522)"><g><path d="M 109.875 -89.21875 L 49.890625 -89.21875 L 49.890625 -59.359375 L 109.875 -59.359375 C 114.4375 -59.359375 117.566406 -60.019531 119.265625 -61.34375 C 120.960938 -62.664062 121.8125 -64.90625 121.8125 -68.0625 L 121.8125 -80.5 C 121.8125 -83.65625 120.960938 -85.894531 119.265625 -87.21875 C 117.566406 -88.550781 114.4375 -89.21875 109.875 -89.21875 Z M 24.015625 0 L 24.015625 -107.75 L 121.0625 -107.75 C 129.9375 -107.75 136.363281 -106.109375 140.34375 -102.828125 C 144.332031 -99.554688 146.328125 -94.226562 146.328125 -86.84375 L 146.328125 -61.46875 C 146.328125 -54.164062 144.332031 -48.894531 140.34375 -45.65625 C 136.363281 -42.425781 129.9375 -40.8125 121.0625 -40.8125 L 106.265625 -40.8125 L 157.53125 0 L 119.828125 0 L 74.65625 -40.8125 L 49.890625 -40.8125 L 49.890625 0 Z M 24.015625 0 "/></g></g></g><g fill="#ffffff" fill-opacity="1"><g transform="translate(355.223689, 207.011522)"><g><path d="M 47.65625 -20.65625 L 134.5 -20.65625 L 134.5 -87.96875 L 47.65625 -87.96875 Z M 21.40625 -82.375 C 21.40625 -92.15625 23.3125 -98.828125 27.125 -102.390625 C 30.9375 -105.960938 38.359375 -107.75 49.390625 -107.75 L 132.765625 -107.75 C 143.878906 -107.75 151.320312 -105.960938 155.09375 -102.390625 C 158.875 -98.828125 160.765625 -92.15625 160.765625 -82.375 L 160.765625 -25.5 C 160.765625 -15.632812 158.832031 -8.914062 154.96875 -5.34375 C 151.113281 -1.78125 143.710938 0 132.765625 0 L 49.390625 0 C 38.359375 0 30.9375 -1.78125 27.125 -5.34375 C 23.3125 -8.914062 21.40625 -15.632812 21.40625 -25.5 Z M 21.40625 -82.375 "/></g></g></g><g fill="#ffffff" fill-opacity="1"><g transform="translate(537.377251, 207.011522)"><g><path d="M 42.3125 0 C 31.269531 0 23.800781 -1.800781 19.90625 -5.40625 C 16.007812 -9.019531 14.0625 -15.71875 14.0625 -25.5 L 14.0625 -47.90625 L 40.5625 -52.75 L 40.5625 -20.15625 L 91.953125 -20.15625 L 91.953125 -107.75 L 118.453125 -107.75 L 118.453125 -25.5 C 118.453125 -15.71875 116.503906 -9.019531 112.609375 -5.40625 C 108.710938 -1.800781 101.242188 0 90.203125 0 Z M 42.3125 0 "/></g></g></g><g fill="#ffffff" fill-opacity="1"><g transform="translate(680.089098, 207.011522)"><g><path d="M 24.015625 0 L 24.015625 -107.75 L 139.609375 -107.75 L 139.609375 -88.71875 L 50.515625 -88.71875 L 50.515625 -65.203125 L 102.40625 -65.203125 L 102.40625 -46.65625 L 50.515625 -46.65625 L 50.515625 -20.15625 L 140.984375 -20.15625 L 140.984375 0 Z M 24.015625 0 "/></g></g></g><g fill="#ffffff" fill-opacity="1"><g transform="translate(834.994332, 207.011522)"><g><path d="M 13.5625 0 L 75.90625 -67.5625 L 12.4375 -131.515625 L 53 -131.515625 L 95.0625 -86.84375 L 135 -131.515625 L 170.21875 -131.515625 L 112.859375 -71.046875 L 183.78125 0 L 142.21875 0 L 94.0625 -51.015625 L 49.640625 0 Z M 13.5625 0 "/></g></g></g></g></g></svg>