<svg xmlns="http://www.w3.org/2000/svg" xmlns:xlink="http://www.w3.org/1999/xlink" width="1920" zoomAndPan="magnify" viewBox="0 0 1440 809.999993" height="1080" preserveAspectRatio="xMidYMid meet" version="1.0"><defs><g/></defs><g fill="#ff3131" fill-opacity="1"><g transform="translate(31.855515, 446.579309)"><g><path d="M 55.109375 -42.40625 L 60.046875 -42.40625 C 62.460938 -42.40625 64.160156 -41.710938 65.140625 -40.328125 C 66.117188 -38.941406 66.609375 -36.289062 66.609375 -32.375 L 66.609375 -10.171875 C 66.609375 -5.890625 66.070312 -3.125 65 -1.875 C 63.925781 -0.625 60.628906 0 55.109375 0 L 30.625 0 C 28.21875 0 26.523438 -0.710938 25.546875 -2.140625 C 24.566406 -3.566406 24.078125 -6.242188 24.078125 -10.171875 L 24.078125 -32.375 C 24.078125 -36.5625 24.609375 -39.28125 25.671875 -40.53125 C 26.742188 -41.78125 30.046875 -42.40625 35.578125 -42.40625 Z M 55.109375 -42.40625 "/></g></g></g><g fill="#ff3131" fill-opacity="1"><g transform="translate(122.538837, 446.579309)"><g><path d="M -6.546875 4.40625 L 64.609375 -145.78125 L 82.65625 -145.78125 L 10.96875 4.40625 Z M -6.546875 4.40625 "/></g></g></g><g fill="#ffffff" fill-opacity="1"><g transform="translate(195.714841, 428.470076)"><g><path d="M 82.890625 -60.953125 L 34.53125 -60.953125 L 34.53125 -45.078125 L 80.59375 -45.078125 C 87.8125 -45.078125 92.6875 -43.84375 95.21875 -41.375 C 97.757812 -38.90625 99.03125 -34.316406 99.03125 -27.609375 L 99.03125 -17.46875 C 99.03125 -10.757812 97.757812 -6.171875 95.21875 -3.703125 C 92.6875 -1.234375 87.8125 0 80.59375 0 L 34.953125 0 C 27.722656 0 22.835938 -1.234375 20.296875 -3.703125 C 17.765625 -6.171875 16.5 -10.757812 16.5 -17.46875 L 16.5 -19.5 L 31.65625 -22.640625 L 31.65625 -13.90625 L 83.875 -13.90625 L 83.875 -30.75 L 37.8125 -30.75 C 30.632812 -30.75 25.785156 -31.984375 23.265625 -34.453125 C 20.753906 -36.921875 19.5 -41.507812 19.5 -48.21875 L 19.5 -56.40625 C 19.5 -63.113281 20.753906 -67.703125 23.265625 -70.171875 C 25.785156 -72.640625 30.632812 -73.875 37.8125 -73.875 L 79.75 -73.875 C 86.6875 -73.875 91.472656 -72.6875 94.109375 -70.3125 C 96.742188 -67.9375 98.0625 -63.71875 98.0625 -57.65625 L 98.0625 -56.125 L 82.890625 -52.5625 Z M 82.890625 -60.953125 "/></g></g></g><g fill="#ffffff" fill-opacity="1"><g transform="translate(311.530509, 428.470076)"><g><path d="M 13.484375 0 L 13.484375 -60.53125 L 78.421875 -60.53125 L 78.421875 -49.828125 L 28.375 -49.828125 L 28.375 -36.625 L 57.515625 -36.625 L 57.515625 -26.203125 L 28.375 -26.203125 L 28.375 -11.328125 L 79.1875 -11.328125 L 79.1875 0 Z M 13.484375 0 "/></g></g></g><g fill="#ffffff" fill-opacity="1"><g transform="translate(398.549524, 428.470076)"><g><path d="M 13.484375 0 L 13.484375 -60.53125 L 23.625 -60.53125 L 75 -20.34375 L 75 -60.53125 L 88.34375 -60.53125 L 88.34375 0 L 78.140625 0 L 26.90625 -40.8125 L 26.90625 0 Z M 13.484375 0 "/></g></g></g><g fill="#ffffff" fill-opacity="1"><g transform="translate(500.456113, 428.470076)"><g><path d="M 4.265625 0 L 40.1875 -60.53125 L 54.375 -60.53125 L 90.859375 0 L 74.296875 0 L 66.671875 -13.28125 L 26.625 -13.28125 L 19.015625 0 Z M 32.921875 -24.328125 L 60.671875 -24.328125 L 46.546875 -49.546875 Z M 32.921875 -24.328125 "/></g></g></g><g fill="#ffffff" fill-opacity="1"><g transform="translate(592.926934, 428.470076)"><g><path d="M 71.578125 23.765625 L 71.578125 33.765625 L 0 33.765625 L 0 23.765625 Z M 71.578125 23.765625 "/></g></g></g><g fill="#ffffff" fill-opacity="1"><g transform="translate(664.499196, 428.470076)"><g><path d="M 82.890625 -60.953125 L 34.53125 -60.953125 L 34.53125 -45.078125 L 80.59375 -45.078125 C 87.8125 -45.078125 92.6875 -43.84375 95.21875 -41.375 C 97.757812 -38.90625 99.03125 -34.316406 99.03125 -27.609375 L 99.03125 -17.46875 C 99.03125 -10.757812 97.757812 -6.171875 95.21875 -3.703125 C 92.6875 -1.234375 87.8125 0 80.59375 0 L 34.953125 0 C 27.722656 0 22.835938 -1.234375 20.296875 -3.703125 C 17.765625 -6.171875 16.5 -10.757812 16.5 -17.46875 L 16.5 -19.5 L 31.65625 -22.640625 L 31.65625 -13.90625 L 83.875 -13.90625 L 83.875 -30.75 L 37.8125 -30.75 C 30.632812 -30.75 25.785156 -31.984375 23.265625 -34.453125 C 20.753906 -36.921875 19.5 -41.507812 19.5 -48.21875 L 19.5 -56.40625 C 19.5 -63.113281 20.753906 -67.703125 23.265625 -70.171875 C 25.785156 -72.640625 30.632812 -73.875 37.8125 -73.875 L 79.75 -73.875 C 86.6875 -73.875 91.472656 -72.6875 94.109375 -70.3125 C 96.742188 -67.9375 98.0625 -63.71875 98.0625 -57.65625 L 98.0625 -56.125 L 82.890625 -52.5625 Z M 82.890625 -60.953125 "/></g></g></g><g fill="#ffffff" fill-opacity="1"><g transform="translate(780.314864, 428.470076)"><g><path d="M 49.546875 -49.6875 L 49.546875 0 L 34.8125 0 L 34.8125 -49.6875 L 5.59375 -49.6875 L 5.59375 -60.53125 L 78.84375 -60.53125 L 78.84375 -49.6875 Z M 49.546875 -49.6875 "/></g></g></g><g fill="#ffffff" fill-opacity="1"><g transform="translate(864.747766, 428.470076)"><g><path d="M 61.71875 -50.109375 L 28.03125 -50.109375 L 28.03125 -33.34375 L 61.71875 -33.34375 C 64.28125 -33.34375 66.035156 -33.710938 66.984375 -34.453125 C 67.941406 -35.203125 68.421875 -36.460938 68.421875 -38.234375 L 68.421875 -45.21875 C 68.421875 -46.988281 67.941406 -48.242188 66.984375 -48.984375 C 66.035156 -49.734375 64.28125 -50.109375 61.71875 -50.109375 Z M 13.484375 0 L 13.484375 -60.53125 L 68 -60.53125 C 72.988281 -60.53125 76.597656 -59.609375 78.828125 -57.765625 C 81.066406 -55.921875 82.1875 -52.925781 82.1875 -48.78125 L 82.1875 -34.53125 C 82.1875 -30.425781 81.066406 -27.460938 78.828125 -25.640625 C 76.597656 -23.828125 72.988281 -22.921875 68 -22.921875 L 59.6875 -22.921875 L 88.484375 0 L 67.3125 0 L 41.9375 -22.921875 L 28.03125 -22.921875 L 28.03125 0 Z M 13.484375 0 "/></g></g></g><g fill="#ffffff" fill-opacity="1"><g transform="translate(952.67542, 428.470076)"><g><path d="M 4.265625 0 L 40.1875 -60.53125 L 54.375 -60.53125 L 90.859375 0 L 74.296875 0 L 66.671875 -13.28125 L 26.625 -13.28125 L 19.015625 0 Z M 32.921875 -24.328125 L 60.671875 -24.328125 L 46.546875 -49.546875 Z M 32.921875 -24.328125 "/></g></g></g><g fill="#ffffff" fill-opacity="1"><g transform="translate(1037.317978, 428.470076)"><g><path d="M 49.546875 -49.6875 L 49.546875 0 L 34.8125 0 L 34.8125 -49.6875 L 5.59375 -49.6875 L 5.59375 -60.53125 L 78.84375 -60.53125 L 78.84375 -49.6875 Z M 49.546875 -49.6875 "/></g></g></g><g fill="#ffffff" fill-opacity="1"><g transform="translate(1121.750835, 428.470076)"><g><path d="M 13.484375 0 L 13.484375 -60.53125 L 78.421875 -60.53125 L 78.421875 -49.828125 L 28.375 -49.828125 L 28.375 -36.625 L 57.515625 -36.625 L 57.515625 -26.203125 L 28.375 -26.203125 L 28.375 -11.328125 L 79.1875 -11.328125 L 79.1875 0 Z M 13.484375 0 "/></g></g></g><g fill="#ffffff" fill-opacity="1"><g transform="translate(1208.769873, 428.470076)"><g><path d="M 72.828125 -49.421875 L 26.765625 -49.421875 L 26.765625 -11.609375 L 72.828125 -11.609375 L 72.828125 -24.46875 L 48.78125 -24.46875 L 48.78125 -35.21875 L 87.296875 -35.21875 L 87.296875 -14.328125 C 87.296875 -8.785156 86.210938 -5.007812 84.046875 -3 C 81.878906 -1 77.722656 0 71.578125 0 L 27.75 0 C 21.59375 0 17.429688 -1 15.265625 -3 C 13.097656 -5.007812 12.015625 -8.785156 12.015625 -14.328125 L 12.015625 -46.265625 C 12.015625 -51.765625 13.097656 -55.515625 15.265625 -57.515625 C 17.429688 -59.523438 21.59375 -60.53125 27.75 -60.53125 L 71.578125 -60.53125 C 77.671875 -60.53125 81.8125 -59.550781 84 -57.59375 C 86.195312 -55.632812 87.296875 -52.09375 87.296875 -46.96875 L 87.296875 -45.359375 L 72.828125 -42.921875 Z M 72.828125 -49.421875 "/></g></g></g><g fill="#ffffff" fill-opacity="1"><g transform="translate(1299.982576, 428.470076)"><g><path d="M 36.34375 0 L 36.34375 -27.1875 L 3.28125 -60.53125 L 23.203125 -60.53125 L 44.796875 -37.953125 L 66.671875 -60.53125 L 84.015625 -60.53125 L 51.09375 -27.46875 L 51.09375 0 Z M 36.34375 0 "/></g></g></g></svg>